<?xml version="1.0" encoding="UTF-8"?><svg id="uuid-7b291da1-d78a-4298-a05e-48bdebfa021e" xmlns="http://www.w3.org/2000/svg" viewBox="0 0 24 24"><path d="M14.321,20.839c.078,.496-.261,.961-.757,1.039-.51,.08-1.032,.122-1.564,.122-5.523,0-10-4.477-10-10S6.477,2,12,2c.531,0,1.054,.042,1.564,.122,.496,.078,.835,.543,.757,1.039-.078,.496-.543,.835-1.039,.757-.417-.065-.845-.1-1.281-.1C7.481,3.818,3.818,7.481,3.818,12s3.663,8.182,8.182,8.182c.437,0,.865-.034,1.281-.1,.496-.078,.961,.261,1.039,.757Zm4.299-13.648c.296,.406,.864,.496,1.27,.2,.406-.295,.496-.864,.2-1.27-.617-.848-1.364-1.595-2.211-2.212-.406-.295-.975-.206-1.27,.2-.296,.406-.206,.975,.2,1.27,.694,.505,1.306,1.117,1.811,1.811Zm3.258,3.245c-.078-.496-.543-.835-1.039-.757-.496,.078-.835,.543-.757,1.039,.065,.417,.1,.845,.1,1.281s-.034,.865-.1,1.281c-.078,.496,.261,.961,.757,1.039,.496,.078,.961-.261,1.039-.757,.08-.51,.122-1.032,.122-1.564s-.042-1.054-.122-1.564Zm-3.258,6.373c-.505,.694-1.117,1.306-1.811,1.811-.406,.296-.496,.864-.2,1.27,.295,.406,.864,.496,1.27,.2,.848-.617,1.595-1.364,2.211-2.211,.296-.406,.206-.975-.2-1.27-.406-.295-.974-.206-1.27,.2Zm-2.984-5.718h-2.727v-2.727c0-.502-.407-.909-.909-.909s-.909,.407-.909,.909v2.727h-2.727c-.502,0-.909,.407-.909,.909s.407,.909,.909,.909h2.727v2.727c0,.502,.407,.909,.909,.909s.909-.407,.909-.909v-2.727h2.727c.502,0,.909-.407,.909-.909s-.407-.909-.909-.909Z" style="fill:#4395fd;"/><path d="M24,24H0V0H24V24Z" style="fill:none;"/></svg>